<?xml version="1.0" ?><!DOCTYPE svg  PUBLIC '-//W3C//DTD SVG 1.0//EN'  'http://www.w3.org/TR/2001/REC-SVG-20010904/DTD/svg10.dtd'><svg enable-background="new 0 0 512 512" id="Layer_1" version="1.0" viewBox="0 0 512 512" xml:space="preserve" xmlns="http://www.w3.org/2000/svg" xmlns:xlink="http://www.w3.org/1999/xlink"><g><g><g><path d="M430.7,192.1c-0.1,26.3-5.9,52.2-17.3,75.9c-5.5,11.4-12.3,22.3-20.1,32.2c-8.3,10.6-18.5,19.1-27.6,29     c-18.4,20-28.3,46.2-29.6,73.2c-0.2,3.3-0.1,6.7,0,10c0.1,3.9,0-3.2,0,2c0,3.7-0.2,7.3-0.7,11c-1.8,12.9-6.8,24.9-14.1,35.5     c-15.8,23-43.5,35-71,33.5c-21.8-1.2-41.9-12.3-56-28.6c-6.9-8-11.9-17.7-15.1-27.7c-1.6-5-2.6-10.1-3.2-15.3     c-0.5-4.6-0.5-6.3-0.3-10c1.4-23.3-5.6-47.7-17.7-67.5c-7.4-12.1-17.5-21.1-27.3-31.1c-8.9-9-16.6-19-23.3-29.6     c-13.7-21.8-22.4-46.7-25.3-72.2c-5.2-45.6,8-92.3,36.6-128.3c27.6-34.8,67.6-57.8,111.4-64.7c48.3-7.6,99.2,7,136.8,38     C407.3,90.4,430.5,140.2,430.7,192.1c0,9.7,15,9.7,15,0c-0.2-47.2-17.8-92.6-49.4-127.7C363.4,27.9,316.8,6.2,268.1,2.8     c-47.2-3.3-94,12.4-130.9,41.7c-35.1,27.8-59.4,68.7-67.6,112.6C60,208,72,261.5,102.4,303.4c7.5,10.4,16.1,20,25.6,28.7     c10.1,9.3,18,20.3,23.7,32.7c5.5,11.8,8.4,25.1,9.2,38.1c0.2,3.3,0.2,6.5,0.1,9.8c0,1-0.5,3.4,0.1-0.3c-0.6,3.4-0.2,6.9,0.1,10.4     c4.1,47.3,43.5,84.1,90.6,86.7c28.5,1.6,56.9-11,75.7-32.3c15.9-18,24.3-42.3,23.7-65.4c-0.4-18.2,2.9-36,11.4-52.2     c10.1-19.4,27.9-32.1,41.4-48.8c27-33.6,41.6-75.6,41.7-118.7C445.8,182.4,430.8,182.4,430.7,192.1z"/><path d="M438.2,199.6c9.7,0,9.7-15,0-15S428.5,199.6,438.2,199.6L438.2,199.6z"/></g></g><g><g><path d="M343.7,406.9c-49.8,0-99.6,0-149.4,0c-8.6,0-17.3,0-25.9,0c2.4,3.2,4.8,6.3,7.2,9.5c1-6,0.5-12.3,0-18.3     c-1.3-13.7-4.8-26.8-10.3-39.5c-2.2,3.8-4.3,7.5-6.5,11.3c49.5,0,99,0,148.5,0c15.2,0,30.4,0,45.7,0c-2.2-3.8-4.3-7.5-6.5-11.3     c-5.1,11.7-8.2,23.6-9.7,36.3c-0.5,4.1-0.6,8.3-0.6,12.5c0,1.5,0,2.9,0.1,4.4c0,0.9-0.2,4,0.2,0.6c-0.5,4,0.9,8,5.2,9.2     c3.5,1,8.7-1.2,9.2-5.2c0.7-5.4,0.1-10.9,0.4-16.4c0.6-11.6,3.4-23.2,8.1-33.9c2.2-5-0.3-11.3-6.5-11.3c-49.5,0-99,0-148.5,0     c-15.2,0-30.4,0-45.7,0c-6.2,0-8.6,6.3-6.5,11.3c4.5,10.5,7.3,21.8,8.3,33.2c0.3,3.4,0.4,6.8,0.4,10.3c0,1.2-0.7,7.1,0,2.8     c-0.8,4.7,2,9.5,7.2,9.5c49.8,0,99.6,0,149.4,0c8.6,0,17.3,0,25.9,0C353.4,421.9,353.4,406.9,343.7,406.9z"/><path d="M343.7,421.9c9.7,0,9.7-15,0-15C334,406.9,334,421.9,343.7,421.9L343.7,421.9z"/></g></g><g><g><path d="M238.2,369.9c9.7,0,9.7-15,0-15S228.5,369.9,238.2,369.9L238.2,369.9z"/><path d="M247.7,406.9c-26.5,0-52.9,0-79.4,0c2.4,3.2,4.8,6.3,7.2,9.5c1-6,0.5-12.3,0-18.3c-1.3-13.7-4.8-26.8-10.3-39.5     c-2.2,3.8-4.3,7.5-6.5,11.3c26.5,0,52.9,0,79.4,0c9.7,0,9.7-15,0-15c-26.5,0-52.9,0-79.4,0c-6.2,0-8.6,6.3-6.5,11.3     c4.5,10.5,7.3,21.8,8.3,33.2c0.3,3.4,0.4,6.8,0.4,10.3c0,1.2-0.6,7.1,0,2.8c-0.8,4.7,1.9,9.5,7.2,9.5c26.5,0,52.9,0,79.4,0     C257.4,421.9,257.4,406.9,247.7,406.9L247.7,406.9z"/></g></g><g><g><path d="M336.2,414.4c-0.2,22.6-9.5,43.6-26,59.1c-17.3,16.4-42.6,23.8-66,20.3c-39.1-5.9-68-40.1-68.4-79.4     c-2.5,2.5-5,5-7.5,7.5c49.8,0,99.6,0,149.4,0c8.6,0,17.3,0,25.9,0c9.7,0,9.7-15,0-15c-49.8,0-99.6,0-149.4,0     c-8.6,0-17.3,0-25.9,0c-4.1,0-7.5,3.4-7.5,7.5c0.4,46.3,34.6,87.1,80.7,94c28.3,4.3,56.5-4.4,78-23.2     c20.2-17.7,31.4-44.2,31.6-70.9C351.3,404.7,336.3,404.7,336.2,414.4z"/></g></g><g><g><path d="M247.7,421.9c9.7,0,9.7-15,0-15C238.1,406.9,238.1,421.9,247.7,421.9L247.7,421.9z"/><path d="M291.9,486.1c-25.9,13-56.2,10.5-80.4-5c-22.5-14.5-35.5-40.1-35.7-66.7c-2.5,2.5-5,5-7.5,7.5c26.5,0,52.9,0,79.4,0     c9.7,0,9.7-15,0-15c-26.5,0-52.9,0-79.4,0c-4.1,0-7.5,3.4-7.5,7.5c0.3,31.9,15.8,60.6,41.8,78.7c28.5,19.8,66.2,21.3,96.9,6     C308.1,494.7,300.5,481.8,291.9,486.1L291.9,486.1z"/></g></g></g></svg>