<?xml version="1.0" ?><!DOCTYPE svg  PUBLIC '-//W3C//DTD SVG 1.0//EN'  'http://www.w3.org/TR/2001/REC-SVG-20010904/DTD/svg10.dtd'><svg enable-background="new 0 0 512 512" id="Layer_1" version="1.0" viewBox="0 0 512 512" xml:space="preserve" xmlns="http://www.w3.org/2000/svg" xmlns:xlink="http://www.w3.org/1999/xlink"><g><g><g><path d="M160.9,418.9c0.1,1.4,0.2,2.8,0.4,4.2c0.4,1.3,1,2.4,1.9,3.3c1.4,1.4,3.3,2.2,5.3,2.2s3.9-0.8,5.3-2.2     c1.3-1.3,2.4-3.4,2.2-5.3c-0.1-0.7-0.1-1.5-0.2-2.2c-0.1-2-0.7-3.8-2.2-5.3c-1.4-1.4-3.3-2.2-5.3-2.2s-3.9,0.8-5.3,2.2     C161.8,415,160.8,417,160.9,418.9c0,0.7,0.1,1.5,0.2,2.2c4.9-0.7,9.8-1.3,14.7-2c0,0,0-0.1,0-0.1c0.1,0.7,0.2,1.3,0.3,2     c-0.1-0.7-0.1-1.4-0.1-2.1c-0.1-2-0.7-3.9-2.2-5.3c-1.4-1.4-3.3-2.2-5.3-2.2C164.5,411.4,160.7,414.8,160.9,418.9z"/><path d="M192.1,484.8c12.8,11.5,28.3,19.5,45.2,22.8c9.4,1.9,13.5-12.5,4-14.5c-14.3-3-27.5-9.3-38.6-19     C195.4,467.9,184.8,478.5,192.1,484.8c13,11.3,28.3,19.3,45.2,22.8c1.3-4.8,2.7-9.6,4-14.5c-14.4-2.9-27.6-9.2-38.6-19     C195.5,467.8,184.8,478.4,192.1,484.8z"/><path d="M190.6,483.5c0.1,0.1,0.2,0.2,0.3,0.3c0.5,0.4,1,0.8,1.5,1.2c1.2,0.7,2.4,1,3.8,1c2,0,3.9-0.8,5.3-2.2     c1.4-1.4,2.2-3.3,2.2-5.3c0-1.9-0.8-4-2.2-5.3c-0.4-0.4-0.8-0.7-1.2-1.1c-1.5-1.4-3.3-2.2-5.3-2.2c-2,0-3.9,0.8-5.3,2.2     c-2.9,2.9-2.9,7.8,0,10.6C190,483,190.3,483.2,190.6,483.5c1.5,1.4,3.3,2.2,5.3,2.2c2,0,3.9-0.8,5.3-2.2c2.8-2.8,3-7.8,0-10.6     c-0.3-0.3-0.6-0.6-0.9-0.8c-3.5,3.5-7.1,7.1-10.6,10.6c0.4,0.4,0.8,0.7,1.2,1.1c3.5-3.5,7.1-7.1,10.6-10.6     c-0.1-0.1-0.2-0.2-0.3-0.3c-2.9-2.8-7.7-2.9-10.6,0C187.8,475.8,187.7,480.7,190.6,483.5z"/><path d="M237.8,507.8c0.9,0.2,1.8,0.3,2.7,0.4c1.4,0,2.6-0.3,3.8-1c1.7-1,2.9-2.6,3.4-4.5c0.5-1.9,0.3-4-0.8-5.8     c-0.4-0.5-0.8-1-1.2-1.5c-0.9-0.9-2-1.6-3.3-1.9c-0.2,0-0.4-0.1-0.7-0.1c-2-0.4-4-0.3-5.8,0.8c-1.7,1-2.9,2.6-3.4,4.5     c-0.5,1.9-0.3,4,0.8,5.8C234.2,505.9,235.9,507.4,237.8,507.8c0.2,0,0.4,0.1,0.7,0.1c0.7-4.9,1.3-9.8,2-14.7c-0.1,0-0.1,0-0.2,0     c0.7,0.1,1.3,0.2,2,0.3c-0.2,0-0.3-0.1-0.5-0.1c-2-0.5-4-0.3-5.8,0.8c-1.7,1-2.9,2.6-3.4,4.5     C231.5,502.4,233.8,506.8,237.8,507.8z"/></g></g><g><path d="M438.2,192.1c0,53.3-22.9,101.3-59.3,134.5c-12.6,11.5-20.8,24-25.9,35.8H158.8    c-5.2-12-13.3-24.4-25.5-35.6C96.1,292.9,73,243.8,73.8,189.4C75.2,90.8,156,10.6,254.7,9.9c14.1-0.1,27.9,1.4,41.2,4.4    C377.3,32.4,438.2,105.1,438.2,192.1z" fill="#FFF200"/><g><path d="M430.7,192.1c-0.1,32.1-8.8,63.3-25.4,90.7c-7.8,13-17.5,24.8-28.4,35.4c-12.4,12-23.3,24.4-30.5,40.4     c2.2-1.2,4.3-2.5,6.5-3.7c-49.5,0-99,0-148.5,0c-15.2,0-30.4,0-45.7,0c2.2,1.2,4.3,2.5,6.5,3.7c-5.5-12.4-13.3-23.6-22.7-33.3     c-9-9.3-18.4-17.8-26.3-28.2c-15.5-20.6-26-44.4-31.4-69.6c-9.8-46,0.5-94.6,26.7-133.4C136,57.7,174.4,31.8,217,21.8     c48.2-11.4,99.5-0.6,139.9,27.6C403.1,81.6,430.5,136,430.7,192.1c0,9.7,15,9.7,15,0c-0.2-47.2-17.8-92.6-49.4-127.7     C363.5,27.9,316.8,6.2,268.1,2.8c-47.2-3.3-94,12.4-130.9,41.7c-35.1,27.8-59.4,68.7-67.6,112.6c-7.2,38.2-2.1,77.7,13.6,113.2     c7.9,17.9,19,34.2,32,48.8c6.8,7.7,14.8,14.2,21.6,21.9c6.5,7.4,11.6,16.1,15.6,25.2c1,2.3,4.1,3.7,6.5,3.7c49.5,0,99,0,148.5,0     c15.2,0,30.4,0,45.7,0c2.4,0,5.4-1.4,6.5-3.7c3.2-7.1,7.1-13.7,11.6-20c5.4-7.3,12.2-13.2,18.7-19.5     c11.7-11.5,21.8-24.8,30.2-38.9c17-28.9,25.7-62.2,25.9-95.7C445.8,182.4,430.8,182.4,430.7,192.1z"/></g></g><g><path d="M343.7,414.4H168.3c0,0.1,2.5-24.6-9.5-52h194.1C341.1,388.9,344.1,412.2,343.7,414.4z" fill="#FBB040"/><g><path d="M343.7,406.9c-49.8,0-99.6,0-149.4,0c-8.6,0-17.3,0-25.9,0c2.4,3.2,4.8,6.3,7.2,9.5c1-6,0.5-12.3,0-18.3     c-1.3-13.7-4.8-26.8-10.3-39.4c-2.2,3.8-4.3,7.5-6.5,11.3c49.5,0,99,0,148.5,0c15.2,0,30.4,0,45.7,0c-2.2-3.8-4.3-7.5-6.5-11.3     c-5.3,12.1-8.5,24.5-9.8,37.6c-0.6,6,0.3,12.2-0.5,18.2c-0.5,4.1,3.8,7.5,7.5,7.5c4.5,0,7-3.4,7.5-7.5c0.7-5-0.1-10.5,0.3-15.6     c0.7-11.2,3.5-22.4,8-32.6c2.2-5-0.3-11.3-6.5-11.3c-49.5,0-99,0-148.5,0c-15.2,0-30.4,0-45.7,0c-6.2,0-8.6,6.3-6.5,11.3     c4.5,10.5,7.3,21.8,8.3,33.2c0.3,3.4,0.4,6.8,0.4,10.3c0,1.2-0.6,7.1,0,2.8c-0.8,4.7,1.9,9.5,7.2,9.5c49.8,0,99.6,0,149.4,0     c8.6,0,17.3,0,25.9,0C353.4,421.9,353.4,406.9,343.7,406.9z"/></g></g><g><g><path d="M237.8,507.8c0.3,0.1,0.7,0.1,1,0.2c1.3-4.8,2.7-9.6,4-14.5c-0.3,0-0.7-0.1-1-0.2c-2-0.4-4-0.3-5.8,0.8     c-1.7,1-2.9,2.6-3.4,4.5c-0.5,1.9-0.3,4,0.8,5.8C234.2,505.9,235.9,507.4,237.8,507.8c0.3,0.1,0.7,0.1,1,0.2     c0.7,0.1,1.3,0.2,2,0.3c1.4,0,2.6-0.3,3.8-1c1.7-1,2.9-2.6,3.4-4.5c0.5-1.9,0.3-4-0.8-5.8c-0.4-0.5-0.8-1-1.2-1.5     c-0.9-0.9-2-1.6-3.3-1.9c-0.3,0-0.7-0.1-1-0.2c-2-0.5-4-0.3-5.8,0.8c-1.7,1-2.9,2.6-3.4,4.5C231.5,502.4,233.8,506.8,237.8,507.8     z"/><path d="M190.6,483.5c13.1,12.2,29.1,20.6,46.6,24.2c9.4,1.9,13.5-12.5,4-14.5c-15.4-3.2-29.4-10.3-40.9-21.1     c-7-6.6-17.6,3.9-10.6,10.6C190,483,190.3,483.2,190.6,483.5c7,6.7,17.6-3.9,10.6-10.6c-0.3-0.3-0.6-0.6-0.9-0.8     c-3.5,3.5-7.1,7.1-10.6,10.6c13.3,12.5,29.6,21.3,47.5,25c1.3-4.8,2.7-9.6,4-14.5c-15.1-3-28.7-9.8-40-20.3     C194.1,466.3,183.5,476.9,190.6,483.5z"/></g></g><g><path d="M343.7,414.4c0,24.2-9.8,46.1-25.7,62c-6.5,6.5-14,12-22.3,16.2c-0.7,0.4-1.5,0.7-2.2,1.1    c-0.1,0-0.2,0.1-0.2,0.1c-0.7,0.3-1.4,0.6-2.1,1c-0.8,0.3-1.5,0.7-2.3,1c-0.8,0.3-1.6,0.6-2.3,0.9c0,0,0,0-0.1,0    c-0.6,0.2-1.3,0.5-2,0.7c-0.3,0.1-0.6,0.2-0.9,0.3c-0.4,0.1-0.8,0.3-1.2,0.4c-0.4,0.1-0.8,0.3-1.2,0.4c-0.8,0.2-1.6,0.5-2.4,0.7    c-0.7,0.2-1.4,0.4-2.1,0.5c-0.7,0.2-1.3,0.3-2,0.5c-0.6,0.1-1.2,0.3-1.8,0.4c-0.6,0.1-1.3,0.2-1.9,0.4c-0.2,0-0.4,0.1-0.6,0.1    c-0.5,0.1-1.1,0.2-1.6,0.3c-0.6,0.1-1.3,0.2-1.9,0.3c-1.5,0.2-2.9,0.3-4.4,0.4c-0.7,0.1-1.4,0.1-2.1,0.1c-0.7,0-1.4,0.1-2.2,0.1    c-0.7,0-1.5,0-2.2,0c-0.8,0-1.5,0-2.3,0c-0.7,0-1.3,0-2-0.1c-0.3,0-0.6,0-0.9,0c-1.2-0.1-2.3-0.1-3.5-0.3c-0.3,0-0.6-0.1-0.9-0.1    c-0.6-0.1-1.1-0.1-1.7-0.2c-0.7-0.1-1.5-0.2-2.2-0.3c-0.6-0.1-1.2-0.2-1.8-0.3c0,0,0,0-0.1,0c-0.1,0-0.2,0-0.3-0.1    c-0.2,0-0.4-0.1-0.7-0.1c-0.2,0-0.4-0.1-0.5-0.1c-15.6-3.1-30.1-10.4-41.9-20.9c-0.4-0.3-0.8-0.7-1.2-1.1    c-0.4-0.3-0.8-0.7-1.2-1.1c-0.5-0.5-1-0.9-1.4-1.4c-0.4-0.4-0.7-0.7-1.1-1.1c-0.9-0.9-1.7-1.9-2.6-2.8c-0.4-0.5-0.8-1-1.2-1.4    c0,0,0,0,0,0c-0.3-0.3-0.5-0.6-0.8-1c-0.8-1-1.6-2-2.4-3.1c-0.3-0.3-0.5-0.7-0.8-1c-0.5-0.7-1-1.4-1.5-2.1    c-0.4-0.6-0.8-1.1-1.1-1.7c-0.4-0.6-0.8-1.2-1.2-1.9c-0.3-0.4-0.5-0.8-0.8-1.3c-0.4-0.7-0.8-1.4-1.2-2.2c-0.3-0.5-0.5-0.9-0.8-1.4    c-0.1-0.1-0.1-0.2-0.2-0.4c-0.2-0.3-0.3-0.6-0.4-0.9c-0.2-0.5-0.5-0.9-0.7-1.4c-0.3-0.6-0.6-1.3-0.9-1.9c-0.2-0.5-0.4-1-0.7-1.5    c-0.1-0.3-0.3-0.6-0.4-0.9c-0.3-0.6-0.5-1.2-0.7-1.8c-0.2-0.6-0.4-1.1-0.6-1.7c0,0,0-0.1,0-0.1c-0.2-0.7-0.5-1.3-0.7-2    c-0.6-1.9-1.2-3.9-1.8-5.9c0-0.2-0.1-0.4-0.1-0.6c-0.2-0.6-0.3-1.3-0.5-1.9c-0.2-0.7-0.3-1.4-0.5-2.1c-0.1-0.7-0.3-1.4-0.4-2.1    c-0.1-0.7-0.3-1.4-0.4-2.2v0c-0.1-0.7-0.2-1.4-0.3-2.1c0,0,0-0.1,0-0.1c-0.1-0.7-0.2-1.5-0.3-2.2c0-0.4-0.1-0.7-0.1-1.1    c0-0.4-0.1-0.7-0.1-1.1c-0.1-0.7-0.1-1.5-0.2-2.2c-0.1-1.5-0.1-3-0.1-4.5H343.7z" fill="#F7941E"/><g><path d="M336.2,414.4c-0.2,24.5-11.1,46.8-29.9,62.5c-15.2,12.8-35.8,18.6-55.4,17.5c-22.6-1.3-43.5-12.9-57.7-30.1     c-5.7-7-10.1-15.3-13.1-23.8c-0.9-2.7-1.7-5.5-2.4-8.3c-0.3-1.1-0.5-2.1-0.7-3.2c-0.1-0.3-0.3-3.7-0.3-1.3c0,0.8-0.6-5.2-0.3-2.2     c-0.1-1.1-0.3-2.2-0.4-3.3c-0.2-2.6-0.3-5.2-0.3-7.9c-2.5,2.5-5,5-7.5,7.5c49.8,0,99.6,0,149.4,0c8.6,0,17.3,0,25.9,0     c9.7,0,9.7-15,0-15c-49.8,0-99.6,0-149.4,0c-8.6,0-17.3,0-25.9,0c-4.1,0-7.5,3.4-7.5,7.5c0.1,11.4,1,17.7,4.4,28.7     c3,9.8,7.8,19.1,13.8,27.3c3.5,4.8,6.7,8.6,11.8,13.4c5.2,4.9,11.1,9.1,17.2,12.8c10.2,6.1,21.9,10.2,33.7,11.9     c49.8,7.3,98-26.3,107.7-76c1.2-6,1.7-12,1.7-18.1C351.3,404.7,336.3,404.7,336.2,414.4z"/></g></g><g><g><path d="M291.9,486.1c-0.7,0.4-1.5,0.7-2.2,1.1c-1.7,0.8-3,2.8-3.4,4.5c-0.5,1.9-0.3,4,0.8,5.8c1,1.7,2.6,2.9,4.5,3.4     c0.7,0.1,1.3,0.2,2,0.3c1.4,0,2.6-0.3,3.8-1c0.7-0.3,1.5-0.7,2.2-1.1c1.7-0.8,3-2.7,3.4-4.5c0.5-1.9,0.3-4-0.8-5.8     c-1-1.7-2.6-2.9-4.5-3.4C295.7,484.8,293.8,485.2,291.9,486.1L291.9,486.1z"/><path d="M160.9,418.9c1.3,23.1,10.4,44.5,26.3,61.2c6.7,7,17.2-3.6,10.6-10.6c-13.1-13.8-20.9-31.6-21.9-50.6     C175.4,409.3,160.4,409.3,160.9,418.9L160.9,418.9z"/></g></g></g></svg>